<?xml version="1.0"?>
<!DOCTYPE svg PUBLIC "-//W3C//DTD SVG 1.1//EN"
"http://www.w3.org/Graphics/SVG/1.1/DTD/svg11.dtd">
<svg version="1.1" xmlns="http://www.w3.org/2000/svg"
xmlns:xlink="http://www.w3.org/1999/xlink"
width="4in" height="4in"
viewBox="0 0 500 500"
preserveAspectRatio="xMidYMid">
  <defs>
    <path id="triangle" d="M 0 0 L 25 -100 L 50 0 Z" />
    <rect id="rectangle" width="100px" height="10px" fill="red"/>
    <g id="pentagon" transform="rotate(90, 100, 100)">
      
      <polygon points="200,100 131,195 19,159 19,41 131,5" fill="none" stroke="black"/>
      
      <line x1="100" y1="100" x2="200" y2="100" stroke="black"/>
      <line x1="100" y1="100" x2="131" y2="195" stroke="black"/>
      <line x1="100" y1="100" x2="19" y2="159" stroke="black"/>
      <line x1="100" y1="100" x2="19" y2="41" stroke="black"/>
      <line x1="100" y1="100" x2="131" y2="5" stroke="black"/>
    </g>

    <path/>
  </defs>

    
    <use xlink:href="#triangle" transform="translate(300,190), scale(0.6,0.6)"    fill="green"/>
    <use xlink:href="#triangle" transform="translate(100,225), scale(0.8,0.8)"     fill="purple"/>
    <use xlink:href="#triangle" transform="translate(200,350), scale(1,1)"        fill="blue"/>

    <use xlink:href="#pentagon"  transform="translate(188,28),scale(0.2,0.2)" transform-origin="100 100"><animateTransform attributeName="transform" type="rotate" from="0" to="360" dur="6s" repeatCount="indefinite" additive="sum"/></use>
    <use xlink:href="#pentagon"  transform="translate(245,37),scale(0.2,0.2)" transform-origin="100 100"><animateTransform attributeName="transform" type="rotate" from="0" to="360" dur="6s" repeatCount="indefinite" additive="sum"/></use>

    <use xlink:href="#pentagon"  transform="translate(-17,40),scale(0.3,0.3)" transform-origin="100 100"><animateTransform attributeName="transform" type="rotate" from="0" to="360" dur="6s" repeatCount="indefinite" additive="sum"/></use>
    <use xlink:href="#pentagon"  transform="translate(60,53),scale(0.3,0.3)" transform-origin="100 100"><animateTransform attributeName="transform" type="rotate" from="0" to="360" dur="6s" repeatCount="indefinite" additive="sum"/></use>
    
    <use xlink:href="#pentagon"  transform="translate(75,145),scale(0.4,0.4)" transform-origin="100 100"><animateTransform attributeName="transform" type="rotate" from="0" to="360" dur="6s" repeatCount="indefinite" additive="sum"/></use>
    <use xlink:href="#pentagon"  transform="translate(172,162),scale(0.4,0.4)" transform-origin="100 100"><animateTransform attributeName="transform" type="rotate" from="0" to="360" dur="6s" repeatCount="indefinite" additive="sum"/></use>
    
    <use xlink:href="#rectangle" transform="translate(287,124), scale(0.6,0.6), rotate(10)"/>
    <use xlink:href="#rectangle" transform="translate(83,135), scale(0.8,0.8), rotate(10)"/>
    <use xlink:href="#rectangle" transform="translate(175,240), scale(1,1), rotate(10)"/>
</svg>
